<svg width="40" height="41" viewBox="0 0 40 41" fill="none" xmlns="http://www.w3.org/2000/svg">
<rect width="40" height="41" rx="10" fill="#28A164"/>
<path d="M29 24.9999V16.9999C28.9996 16.6492 28.9071 16.3047 28.7315 16.0011C28.556 15.6974 28.3037 15.4453 28 15.2699L21 11.2699C20.696 11.0944 20.3511 11.002 20 11.002C19.6489 11.002 19.304 11.0944 19 11.2699L12 15.2699C11.6963 15.4453 11.444 15.6974 11.2685 16.0011C11.0929 16.3047 11.0004 16.6492 11 16.9999V24.9999C11.0004 25.3506 11.0929 25.6951 11.2685 25.9987C11.444 26.3024 11.6963 26.5545 12 26.7299L19 30.7299C19.304 30.9054 19.6489 30.9979 20 30.9979C20.3511 30.9979 20.696 30.9054 21 30.7299L28 26.7299C28.3037 26.5545 28.556 26.3024 28.7315 25.9987C28.9071 25.6951 28.9996 25.3506 29 24.9999Z" stroke="white" stroke-width="2" stroke-linecap="round" stroke-linejoin="round"/>
<path d="M11.27 15.96L20 21.01L28.73 15.96" stroke="white" stroke-width="2" stroke-linecap="round" stroke-linejoin="round"/>
<path d="M20 31.08V21" stroke="white" stroke-width="2" stroke-linecap="round" stroke-linejoin="round"/>
</svg>
