<svg width="40" height="41" viewBox="0 0 40 41" fill="none" xmlns="http://www.w3.org/2000/svg">
<rect width="40" height="41" rx="10" fill="#F35555"/>
<path d="M26.8051 13C26.8051 12.56 26.4451 12.2 26.0051 12.2H14.0051C13.5651 12.2 13.2051 12.56 13.2051 13V29C13.2051 29.44 13.5651 29.7999 14.0051 29.7999H26.0051C26.4451 29.7999 26.8051 29.44 26.8051 29V13ZM25.2051 28.2H14.8051V13.8H25.2051V28.2ZM16.7051 22.9C16.7051 22.52 17.0251 22.2 17.4051 22.2H19.7651C20.1451 22.2 20.4651 22.52 20.4651 22.9C20.4651 23.28 20.1451 23.6 19.7651 23.6H17.4051C17.0051 23.6 16.7051 23.28 16.7051 22.9ZM16.8051 19.7C16.8051 19.32 17.1251 19 17.5051 19H22.2651C22.6451 19 22.9651 19.32 22.9651 19.7C22.9651 20.08 22.6451 20.4 22.2651 20.4H17.5051C17.1251 20.4 16.8051 20.08 16.8051 19.7ZM16.8051 16.7C16.8051 16.32 17.1251 16 17.5051 16H22.2651C22.6451 16 22.9651 16.32 22.9651 16.7C22.9651 17.08 22.6451 17.4 22.2651 17.4H17.5051C17.1251 17.4 16.8051 17.08 16.8051 16.7ZM22.7451 22.46C22.8651 22.58 22.9451 22.76 22.9451 22.96C22.9451 23.14 22.8651 23.32 22.7451 23.46C22.6251 23.58 22.4251 23.66 22.2451 23.66C22.0651 23.66 21.8851 23.58 21.7451 23.46C21.6051 23.34 21.5451 23.16 21.5451 22.96C21.5451 22.78 21.6251 22.6 21.7451 22.46C22.0051 22.2 22.4851 22.2 22.7451 22.46Z" fill="white"/>
</svg>
