<svg width="40" height="41" viewBox="0 0 40 41" fill="none" xmlns="http://www.w3.org/2000/svg">
<rect width="40" height="41" rx="10" fill="#4378DB"/>
<path fill-rule="evenodd" clip-rule="evenodd" d="M16.9 10.6001H16.861H16.861C15.7739 10.6001 14.9033 10.6001 14.1995 10.6576C13.4768 10.7166 12.8513 10.8408 12.2754 11.1342C11.3534 11.6039 10.6038 12.3536 10.134 13.2755C9.84064 13.8514 9.71651 14.477 9.65746 15.1996C9.59996 15.9034 9.59997 16.7741 9.59998 17.8611V17.8611V17.9001V24.1001V24.139V24.1391C9.59997 25.2261 9.59996 26.0968 9.65746 26.8006C9.71651 27.5232 9.84064 28.1488 10.134 28.7247C10.6038 29.6466 11.3534 30.3962 12.2754 30.866C12.8513 31.1594 13.4768 31.2836 14.1995 31.3426C14.9032 31.4001 15.7739 31.4001 16.8609 31.4001H16.861H16.9H23.1H23.1389H23.139C24.226 31.4001 25.0967 31.4001 25.8005 31.3426C26.5231 31.2836 27.1487 31.1594 27.7245 30.866C28.6465 30.3962 29.3961 29.6466 29.8659 28.7247C30.1593 28.1488 30.2834 27.5232 30.3425 26.8006C30.4 26.0968 30.4 25.2262 30.4 24.1391V24.1391V24.1001V17.9001V17.8611V17.8611C30.4 16.774 30.4 15.9034 30.3425 15.1996C30.2834 14.477 30.1593 13.8514 29.8659 13.2755C29.3961 12.3536 28.6465 11.6039 27.7245 11.1342C27.1487 10.8408 26.5231 10.7166 25.8005 10.6576C25.0967 10.6001 24.226 10.6001 23.1389 10.6001H23.1389H23.1H16.9ZM13.0926 12.738C13.3724 12.5954 13.7347 12.5016 14.3461 12.4516C14.9679 12.4008 15.765 12.4001 16.9 12.4001H23.1C24.2349 12.4001 25.032 12.4008 25.6539 12.4516C26.2652 12.5016 26.6275 12.5954 26.9073 12.738C27.4906 13.0352 27.9649 13.5094 28.2621 14.0927C28.4047 14.3725 28.4985 14.7348 28.5485 15.3462C28.5993 15.9681 28.6 16.7651 28.6 17.9001V23.4264L26.6148 20.7098C25.8158 19.6165 24.1841 19.6165 23.3852 20.7098L20.7292 24.3443C19.9663 25.3884 18.428 25.4448 17.5905 24.4596L17.0239 23.7929C16.2252 22.8533 14.7748 22.8533 13.9761 23.7929L11.4601 26.7528C11.4571 26.7206 11.4542 26.6877 11.4515 26.654C11.4007 26.0321 11.4 25.2351 11.4 24.1001V17.9001C11.4 16.7651 11.4007 15.9681 11.4515 15.3462C11.5014 14.7348 11.5953 14.3725 11.7379 14.0927C12.0351 13.5094 12.5093 13.0352 13.0926 12.738ZM18.5 17.0001C18.5 18.3808 17.3807 19.5001 16 19.5001C14.6193 19.5001 13.5 18.3808 13.5 17.0001C13.5 15.6194 14.6193 14.5001 16 14.5001C17.3807 14.5001 18.5 15.6194 18.5 17.0001Z" fill="white"/>
</svg>
