<svg width="40" height="40" viewBox="0 0 40 40" fill="none" xmlns="http://www.w3.org/2000/svg">
<rect x="8.33337" y="3.33333" width="25" height="20" rx="2" fill="#405DB5"/>
<path d="M3.33337 9.86667C3.33337 8.74657 3.33337 8.18651 3.55136 7.75869C3.74311 7.38237 4.04907 7.07641 4.42539 6.88466C4.85322 6.66667 5.41327 6.66667 6.53337 6.66667H14.9541C15.5803 6.66667 15.8933 6.66667 16.1775 6.75297C16.4291 6.82938 16.6631 6.95463 16.8663 7.12158C17.0957 7.31016 17.2694 7.57065 17.6167 8.09163L19.0501 10.2417C19.3974 10.7627 19.5711 11.0232 19.8005 11.2118C20.0036 11.3787 20.2377 11.504 20.4892 11.5804C20.7734 11.6667 21.0865 11.6667 21.7126 11.6667H33.4667C34.5868 11.6667 35.1469 11.6667 35.5747 11.8847C35.951 12.0764 36.257 12.3824 36.4487 12.7587C36.6667 13.1865 36.6667 13.7466 36.6667 14.8667V30.1333C36.6667 31.2534 36.6667 31.8135 36.4487 32.2413C36.257 32.6176 35.951 32.9236 35.5747 33.1153C35.1469 33.3333 34.5868 33.3333 33.4667 33.3333H6.53338C5.41327 33.3333 4.85322 33.3333 4.42539 33.1153C4.04907 32.9236 3.74311 32.6176 3.55136 32.2413C3.33337 31.8135 3.33337 31.2534 3.33337 30.1333V9.86667Z" fill="white"/>
</svg>
