<svg width="40" height="41" viewBox="0 0 40 41" fill="none" xmlns="http://www.w3.org/2000/svg">
<rect width="40" height="41" rx="10" fill="#FDCD55"/>
<rect x="9" y="9" width="22" height="23" rx="11" fill="#FDCD55" stroke="white" stroke-width="2"/>
<path d="M24.2327 20.1621C23.951 19.5517 23.0915 19.0933 21.3726 18.1766C19.8204 17.3487 19.0443 16.9348 18.4109 17.0165C17.858 17.0878 17.36 17.3866 17.0369 17.8409C16.6667 18.3614 16.6667 19.2409 16.6667 21.0001C16.6667 22.7592 16.6667 23.6388 17.0369 24.1593C17.36 24.6135 17.858 24.9123 18.4109 24.9837C19.0443 25.0654 19.8204 24.6514 21.3726 23.8236C23.0915 22.9068 23.951 22.4484 24.2327 21.8381C24.478 21.3063 24.478 20.6938 24.2327 20.1621Z" fill="white"/>
</svg>
